<svg height="512pt" viewBox="-103 0 512 512.16996" width="512pt" xmlns="http://www.w3.org/2000/svg"><path d="m267.027344 213.917969c-7.527344 1.304687-15.011719 2.429687-22.351563 3.410156l-6.542969-68.308594c43.886719-28.058593 56.90625-77.3125 60.390626-111.042969 1.085937-10.863281-3.296876-21.558593-11.691407-28.535156-10.144531-8.5-23.804687-11.496094-36.574219-8.023437-31.585937 8.179687-63.992187 12.761719-96.605468 13.664062-32.613282-.902343-65.023438-5.484375-96.605469-13.664062-12.773437-3.472657-26.441406-.460938-36.574219 8.058593-8.394531 6.964844-12.785156 17.644532-11.714844 28.5 3.480469 33.722657 16.492188 82.96875 60.363282 111.027344l-6.492188 68.335938c-7.339844-.992188-14.824218-2.117188-22.351562-3.414063-12.964844-2.34375-26.121094 2.964844-33.824219 13.652344-7.472656 10.1875-8.445313 23.757813-2.507813 34.910156 10.738282 18.253907 26.824219 32.765625 46.078126 41.582031l-38.023438 182.078126c-2.339844 11.273437 4.582031 22.398437 15.726562 25.289062 11.144532 2.890625 22.597657-3.472656 26.035157-14.460938l30.496093-95.855468h138.796876l30.488281 95.820312c3.410156 11.035156 14.894531 17.4375 26.074219 14.527344 11.175781-2.90625 18.089843-14.09375 15.6875-25.390625l-37.988282-182.050781c19.253906-8.8125 35.339844-23.328125 46.078125-41.582032 5.9375-11.152343 4.960938-24.71875-2.507812-34.910156-7.722657-10.683594-20.894531-15.980468-33.859375-13.617187zm-39.253906 5.484375c-5.867188.644531-11.527344 1.210937-16.980469 1.707031l-5.4375-57.292969c5.644531-1.652344 11.171875-3.671875 16.554687-6.039062zm-74.121094-48.683594c11.703125.042969 23.386718-.957031 34.910156-2.984375l5.179688 54.65625c-23.679688 1.570313-39.792969 1.621094-40.105469 1.621094-.316407 0-16.410157-.050781-40.109375-1.621094l5.179687-54.65625c11.539063 2.03125 23.230469 3.03125 34.945313 2.984375zm-127.914063-134.492188c-.457031-5.292968 1.75-10.464843 5.886719-13.796874 4.132812-3.472657 9.367188-5.355469 14.761719-5.308594 2.148437.015625 4.285156.300781 6.359375.851562 32.976562 8.601563 66.835937 13.359375 100.90625 14.175782 34.070312-.816407 67.929687-5.574219 100.90625-14.175782 7.367187-2.042968 15.265625-.363281 21.164062 4.5 4.121094 3.335938 6.3125 8.503906 5.84375 13.789063-5.527344 53.539062-32.222656 117.390625-127.914062 117.390625-24.957032.859375-49.6875-4.96875-71.628906-16.886719-.121094-.058594-.214844-.152344-.332032-.210937-38.539062-22.605469-52.183594-63.832032-55.953125-100.328126zm59.691407 121.515626c5.378906 2.367187 10.910156 4.386718 16.554687 6.039062l-5.4375 57.285156c-5.457031-.476562-11.117187-1.046875-16.980469-1.707031zm-47.949219 334.097656c-.59375 1.878906-2.34375 3.15625-4.320313 3.148437-1.347656.007813-2.625-.597656-3.472656-1.648437-.882812-1.046875-1.242188-2.4375-.980469-3.78125l37.195313-178.292969c8.554687 3.464844 17.285156 6.480469 26.15625 9.035156zm161.195312-167.324219 8.078125 25.40625h-106.203125l8.078125-25.40625c29.6875 6.28125 60.359375 6.28125 90.046875 0zm-109.023437 59.539063 5.425781-17.066407h117.113281l5.425782 17.066407zm188.929687 105.4375c.28125 1.363281-.074219 2.78125-.964843 3.847656-.847657 1.050781-2.125 1.65625-3.472657 1.648437-1.988281.007813-3.746093-1.285156-4.328125-3.183593l-54.570312-171.519532c8.871094-2.554687 17.601562-5.570312 26.15625-9.039062zm9.691407-235.042969c-11.253907 21.265625-38.945313 38.613281-80.050782 50.175781-35.6875 10.042969-73.453125 10.042969-109.140625 0-41.105469-11.5625-68.796875-28.910156-80.050781-50.175781-2.917969-5.386719-2.4375-11.980469 1.238281-16.886719 3.871094-5.40625 10.53125-8.070312 17.066407-6.828125 38.449218 6.417969 77.335937 9.875 116.316406 10.34375 38.972656-.46875 77.847656-3.929687 116.292968-10.34375 6.53125-1.242187 13.191407 1.421875 17.066407 6.828125 3.679687 4.898438 4.171875 11.492188 1.261719 16.886719zm0 0"/></svg>