<svg height="512pt" viewBox="-32 0 512 512" width="512pt" xmlns="http://www.w3.org/2000/svg"><path d="m440.359375 0h-432.84375c-4.152344 0-7.515625 3.363281-7.515625 7.515625v496.96875c0 4.152344 3.363281 7.515625 7.515625 7.515625h24.046875c4.148438 0 7.515625-3.363281 7.515625-7.515625v-16.53125h369.71875v16.53125c0 4.152344 3.367187 7.515625 7.515625 7.515625h24.046875c4.152344 0 7.515625-3.363281 7.515625-7.515625v-496.96875c0-4.152344-3.363281-7.515625-7.515625-7.515625zm-7.515625 472.921875h-201.390625v-9.015625h184.859375c4.152344 0 7.515625-3.363281 7.515625-7.515625v-196.382813c0-4.152343-3.363281-7.515624-7.515625-7.515624-4.148438 0-7.515625 3.363281-7.515625 7.515624v28.554688h-177.34375v-41.078125h144.78125c4.152344 0 7.515625-3.363281 7.515625-7.515625v-83.085938l25.046875-10.019531v77.074219c0 4.152344 3.367187 7.515625 7.515625 7.515625 4.152344 0 7.515625-3.363281 7.515625-7.515625v-192.375c0-4.152344-3.363281-7.515625-7.515625-7.515625h-184.859375v-9.015625h201.390625zm-128.25-433.84375v25.046875h-33.0625v-25.046875zm104.203125 0v70.484375l-26.191406-41.90625c-1.355469-2.167969-3.8125-3.53125-6.371094-3.53125h-56.609375v-25.046875zm-25.046875 58.765625 21.425781 34.28125-21.425781 8.570312zm-152.296875 134.609375v-153.296875h1.90625c3.378906 13.785156 15.839844 24.046875 30.65625 24.046875s27.277344-10.261719 30.65625-24.046875h25.953125v153.296875zm0 151.296875h177.34375v65.125h-177.34375zm177.34375-15.03125h-177.34375v-65.125h177.34375zm-144.78125-289.5625h14.707031c-2.742187 5.34375-8.296875 9.015625-14.707031 9.015625s-11.964844-3.671875-14.707031-9.015625zm104.703125 43.234375-27.019531-43.234375h27.019531zm-33.0625-24.546875 21.425781 34.28125-21.425781 8.570312zm0 59.039062 33.0625-13.222656v88.792969h-33.0625zm-79.15625-92.757812h-25.046875v-25.046875h25.046875zm-232.453125 432.84375h-9.015625v-9.015625h9.015625zm-9.015625-24.046875v-457.890625h201.390625v457.890625zm417.8125 24.046875h-9.015625v-9.015625h9.015625zm0 0"/><path d="m336.15625 408.796875h-32.0625c-4.148438 0-7.515625 3.363281-7.515625 7.515625s3.367187 7.515625 7.515625 7.515625h32.0625c4.152344 0 7.515625-3.363281 7.515625-7.515625s-3.363281-7.515625-7.515625-7.515625zm0 0"/><path d="m304.09375 335.65625h32.0625c4.152344 0 7.515625-3.363281 7.515625-7.515625s-3.363281-7.515625-7.515625-7.515625h-32.0625c-4.148438 0-7.515625 3.363281-7.515625 7.515625s3.367187 7.515625 7.515625 7.515625zm0 0"/><path d="m175.84375 24.046875h-144.28125c-4.152344 0-7.515625 3.363281-7.515625 7.515625v424.828125c0 4.152344 3.363281 7.515625 7.515625 7.515625h144.28125c4.148438 0 7.515625-3.363281 7.515625-7.515625v-424.828125c0-4.152344-3.367187-7.515625-7.515625-7.515625zm-7.515625 424.828125h-129.25v-409.796875h129.25zm0 0"/><path d="m199.890625 216.421875c-4.148437 0-7.515625 3.363281-7.515625 7.515625v48.09375c0 4.152344 3.367188 7.515625 7.515625 7.515625s7.515625-3.363281 7.515625-7.515625v-48.09375c0-4.152344-3.367188-7.515625-7.515625-7.515625zm0 0"/></svg>