<svg height="512pt" viewBox="-22 0 512 512" width="512pt" xmlns="http://www.w3.org/2000/svg"><path d="m436.457031 0h-405.085937c-17.296875 0-31.371094 14.074219-31.371094 31.371094v231.882812c0 17.300782 14.074219 31.371094 31.371094 31.371094h105.566406c-7.457031 8.289062-14.867188 19.425781-20.863281 34.007812h-52.171875c-20.269532 0-36.761719 16.492188-36.761719 36.761719v78.875c0 13.328125 10.84375 24.175781 24.171875 24.175781h15.257812v33.476563c0 5.566406 4.511719 10.078125 10.078126 10.078125h39.851562c5.566406 0 10.078125-4.511719 10.078125-10.078125v-33.476563h214.675781v33.476563c0 5.566406 4.511719 10.078125 10.078125 10.078125h39.847657c5.5625 0 10.078124-4.511719 10.078124-10.078125v-33.476563h15.257813c13.328125 0 24.171875-10.84375 24.171875-24.175781v-78.871093c0-20.273438-16.492188-36.765626-36.761719-36.765626h-52.167969c-6-14.578124-13.410156-25.71875-20.867187-34.007812h105.566406c17.300781 0 31.371094-14.070312 31.371094-31.371094v-231.882812c0-17.296875-14.070313-31.371094-31.371094-31.371094zm-266.875 294.625h18.027344c-16.003906 12.804688-23.570313 25.855469-27.023437 34.007812h-22.425782c12.078125-24.421874 27.117188-32.203124 31.421875-34.007812zm71.453125 0c25.003906 10.984375 37.472656 24.46875 43.570313 34.007812h-101.28125c6.15625-9.550781 18.671875-23.105468 43.46875-34.007812zm-134.617187 197.21875h-19.6875v-23.398438h19.6875zm274.679687 0h-19.6875v-23.398438h19.6875zm39.433594-47.574219c0 2.214844-1.800781 4.019531-4.015625 4.019531h-365.199219c-2.21875 0-4.019531-1.804687-4.019531-4.019531v-35.652343h373.234375zm0-78.871093v23.0625h-373.234375v-23.0625c0-9.160157 7.449219-16.609376 16.605469-16.609376h340.023437c9.15625 0 16.605469 7.449219 16.605469 16.609376zm-90.863281-36.765626h-22.425781c-3.453126-8.152343-11.015626-21.203124-27.023438-34.007812h18.027344c4.304687 1.804688 19.34375 9.585938 31.421875 34.007812zm118.003906-65.378906c0 6.183594-5.03125 11.214844-11.214844 11.214844h-405.085937c-6.183594 0-11.214844-5.03125-11.214844-11.214844v-15.726562h298.417969c5.566406 0 10.082031-4.511719 10.082031-10.078125 0-5.566407-4.515625-10.078125-10.082031-10.078125h-298.417969v-196c0-6.183594 5.03125-11.214844 11.214844-11.214844h405.085937c6.183594 0 11.214844 5.03125 11.214844 11.214844v196h-48.464844c-5.566406 0-10.078125 4.511718-10.078125 10.078125 0 5.566406 4.511719 10.078125 10.078125 10.078125h48.464844zm0 0"/><path d="m242.777344 360.5625h-17.726563c-5.566406 0-10.078125 4.511719-10.078125 10.078125s4.511719 10.078125 10.078125 10.078125h17.726563c5.566406 0 10.082031-4.511719 10.082031-10.078125s-4.515625-10.078125-10.082031-10.078125zm0 0"/><path d="m211.777344 438.53125h44.277344c5.5625 0 10.078124-4.511719 10.078124-10.078125s-4.515624-10.078125-10.078124-10.078125h-44.277344c-5.566406 0-10.082032 4.511719-10.082032 10.078125s4.515626 10.078125 10.082032 10.078125zm0 0"/><path d="m358.917969 227.371094h-.027344c-5.566406 0-10.066406 4.511718-10.066406 10.078125 0 5.566406 4.527343 10.078125 10.09375 10.078125 5.566406 0 10.078125-4.511719 10.078125-10.078125 0-5.566407-4.511719-10.078125-10.078125-10.078125zm0 0"/></svg>