<svg height="511pt" viewBox="-42 1 511 511.999" width="511pt" xmlns="http://www.w3.org/2000/svg"><path d="m199.988281 432h27.15625c8.28125 0 15-6.714844 15-15s-6.71875-15-15-15h-27.15625c-8.285156 0-15 6.714844-15 15s6.714844 15 15 15zm0 0"/><path d="m227.144531 241.5h-27.15625c-8.285156 0-15 6.714844-15 15s6.714844 15 15 15h27.15625c8.28125 0 15-6.714844 15-15s-6.71875-15-15-15zm0 0"/><path d="m227.144531 80.5h-27.15625c-8.285156 0-15 6.714844-15 15s6.714844 15 15 15h27.15625c8.28125 0 15-6.714844 15-15s-6.71875-15-15-15zm0 0"/><path d="m411.5 0h-396c-8.285156 0-15 6.714844-15 15v482c0 8.28125 6.714844 15 15 15h396c8.28125 0 15-6.71875 15-15v-482c0-8.285156-6.714844-15-15-15zm-381 191h366v131h-366zm0-161h366v131h-366zm366 452h-366v-130h366zm0 0"/></svg>