<?xml version="1.0" encoding="iso-8859-1"?>
<!-- Generator: Adobe Illustrator 19.0.0, SVG Export Plug-In . SVG Version: 6.00 Build 0)  -->
<svg version="1.1" id="Capa_1" xmlns="http://www.w3.org/2000/svg" xmlns:xlink="http://www.w3.org/1999/xlink" x="0px" y="0px"
	 viewBox="0 0 384.8 384.8" style="enable-background:new 0 0 384.8 384.8;" xml:space="preserve">
<g>
	<g>
		<path d="M346,0H38.8C28.4,0,19.6,8.8,19.6,19.2v313.6c0,10.4,8.8,19.2,19.2,19.2h4.8v24.8c0,4.8,3.2,8,8,8h281.6c4.8,0,8-3.2,8-8
			V352h4.8c10.4,0,19.2-8.8,19.2-19.2V19.2C365.2,8.8,356.4,0,346,0z M38.8,16h145.6v99.2h-36V37.6c0-4.8-3.2-8-8-8H114H87.6H61.2
			c-4.8,0-8,3.2-8,8v77.6H36.4v-96C35.6,17.6,37.2,16,38.8,16z M132.4,46.4V116H122V46.4H132.4z M106,46.4V116H95.6V46.4H106z
			 M79.6,45.6v69.6H69.2V45.6H79.6z M35.6,131.2h24.8h26.4h26.4h26.4h44.8v98.4H35.6V131.2z M38.8,336.8c-1.6-0.8-3.2-1.6-3.2-4
			v-86.4h148.8v90.4H51.6H38.8z M59.6,369.6v-16.8h168H254h26.4h26.4h17.6v16.8H59.6z M235.6,336v-69.6H246V336H235.6z M262,336.8
			v-69.6h10.4v69.6H262z M288.4,336.8v-69.6h10.4v69.6H288.4z M346,336h-12.8h-17.6v-77.6c0-4.8-3.2-8-8-8h-27.2H254h-26.4
			c-4.8,0-8,3.2-8,8V336h-19.2v-89.6h27.2H254h26.4h26.4h41.6v87.2C349.2,335.2,347.6,336,346,336z M235.6,230.4v-69.6H246v69.6
			H235.6z M262,230.4v-69.6h10.4v69.6H262z M288.4,230.4v-69.6h10.4v69.6H288.4z M349.2,229.6h-33.6v-76.8c0-4.8-4-8-8-8h-27.2H254
			h-26.4c-4.8,0-8,3.2-8,8v77.6h-19.2v-99.2h148.8V229.6z M349.2,115.2H200.4V16H346c1.6,0,3.2,1.6,3.2,3.2V115.2z"/>
	</g>
</g>
<g>
</g>
<g>
</g>
<g>
</g>
<g>
</g>
<g>
</g>
<g>
</g>
<g>
</g>
<g>
</g>
<g>
</g>
<g>
</g>
<g>
</g>
<g>
</g>
<g>
</g>
<g>
</g>
<g>
</g>
</svg>
