<?xml version="1.0" encoding="iso-8859-1"?>
<!-- Generator: Adobe Illustrator 19.0.0, SVG Export Plug-In . SVG Version: 6.00 Build 0)  -->
<svg version="1.1" id="Capa_1" xmlns="http://www.w3.org/2000/svg" xmlns:xlink="http://www.w3.org/1999/xlink" x="0px" y="0px"
	 viewBox="0 0 417.6 417.6" style="enable-background:new 0 0 417.6 417.6;" xml:space="preserve">
<g>
	<g>
		<path d="M340.4,0H77.2c-4.8,0-8,3.2-8,8v116v116v102.4V356v54.4c0,4,3.2,7.2,8,7.2c4.8,0,8-3.2,8-8v-46.4h247.2v46.4
			c0,4.8,3.2,8,8,8s8-3.2,8-8v-54.4v-13.6V239.2V124V8C348.4,3.2,345.2,0,340.4,0z M332.4,341.6v5.6H85.2v-5.6v-94.4h247.2V341.6z
			 M332.4,231.2h-0.8H85.2V132h247.2V231.2z M332.4,116H85.2V16h247.2V116z"/>
	</g>
</g>
<g>
	<g>
		<path d="M309.2,29.6H107.6c-4.8,0-8,3.2-8,8v56.8c0,4.8,3.2,8,8,8h201.6c4.8,0,8-3.2,8-8V37.6C317.2,32.8,314,29.6,309.2,29.6z
			 M301.2,86.4H115.6V45.6H186v16h46.4v-16h68.8V86.4z"/>
	</g>
</g>
<g>
	<g>
		<path d="M309.2,144.8H107.6c-4.8,0-8,3.2-8,8v56.8c0,4.8,3.2,8,8,8h201.6c4.8,0,8-3.2,8-8v-56.8C317.2,148,314,144.8,309.2,144.8z
			 M301.2,201.6H115.6v-40.8H186v17.6h46.4v-17.6h68.8V201.6z"/>
	</g>
</g>
<g>
	<g>
		<path d="M309.2,260.8H107.6c-4.8,0-8,3.2-8,8v56.8c0,4.8,3.2,8,8,8h201.6c4.8,0,8-3.2,8-8v-56.8
			C317.2,264.8,314,260.8,309.2,260.8z M301.2,317.6H115.6v-40.8H186v17.6h46.4v-17.6h68.8V317.6z"/>
	</g>
</g>
<g>
</g>
<g>
</g>
<g>
</g>
<g>
</g>
<g>
</g>
<g>
</g>
<g>
</g>
<g>
</g>
<g>
</g>
<g>
</g>
<g>
</g>
<g>
</g>
<g>
</g>
<g>
</g>
<g>
</g>
</svg>
