<?xml version="1.0" encoding="iso-8859-1"?>
<!-- Generator: Adobe Illustrator 19.0.0, SVG Export Plug-In . SVG Version: 6.00 Build 0)  -->
<svg version="1.1" id="Capa_1" xmlns="http://www.w3.org/2000/svg" xmlns:xlink="http://www.w3.org/1999/xlink" x="0px" y="0px"
	 viewBox="0 0 445.6 445.6" style="enable-background:new 0 0 445.6 445.6;" xml:space="preserve">
<g>
	<g>
		<path d="M444.8,106c-0.8-9.6-5.6-33.6-44.8-33.6H44.8c-27.2,0-44,12-44.8,32.8v0.8v0.8v0.8c0.8,9.6,6.4,32,44.8,32h112.8
			c3.2,17.6,18.4,32,38.4,39.2c-6.4,6.4-9.6,15.2-9.6,24.8c0,10.4,4,19.2,11.2,25.6c-19.2,8.8-33.6,28-34.4,50.4l-98.4,79.2
			c-3.2,2.4-4,6.4-2.4,9.6s5.6,4.8,9.6,4l108.8-32l39.2,30.4c3.2,2.4,7.2,2.4,10.4,0l33.6-29.6l108.8,32c0.8,0,1.6,0,2.4,0
			c3.2,0,5.6-1.6,7.2-4c1.6-3.2,0.8-7.2-2.4-9.6L282.4,282c-1.6-22.4-15.2-41.6-34.4-50.4c6.4-6.4,11.2-16,11.2-25.6
			c0-9.6-4-18.4-9.6-24.8c20-7.2,35.2-21.6,38.4-39.2h112.8c39.2,0,44-23.2,44.8-32v-0.8v-0.8C444.8,106,444.8,106,444.8,106z
			 M338.4,346L264,324.4c-2.4-0.8-5.6,0-7.2,1.6l-31.2,28.8L188,326c-1.6-0.8-3.2-1.6-4.8-1.6c-0.8,0-1.6,0-2.4,0L106.4,346
			l66.4-53.6H272L338.4,346z M265.6,277.2h-86.4c4-20.8,21.6-36,43.2-36S262.4,256.4,265.6,277.2z M202.4,204.4c0-11.2,8.8-20,20-20
			s20,8.8,20,20s-8.8,20-20,20S202.4,215.6,202.4,204.4z M222.4,168.4c-23.2,0-43.2-12-48-28h96
			C265.6,156.4,245.6,168.4,222.4,168.4z M400,124.4H44.8c-18.4,0-28-5.6-28.8-17.6c0-12,9.6-18.4,28.8-18.4h356
			c18.4,0,28.8,6.4,28.8,18.4C428.8,118.8,419.2,124.4,400,124.4z"/>
	</g>
</g>
<g>
</g>
<g>
</g>
<g>
</g>
<g>
</g>
<g>
</g>
<g>
</g>
<g>
</g>
<g>
</g>
<g>
</g>
<g>
</g>
<g>
</g>
<g>
</g>
<g>
</g>
<g>
</g>
<g>
</g>
</svg>
