<?xml version="1.0" encoding="iso-8859-1"?>
<!-- Generator: Adobe Illustrator 19.0.0, SVG Export Plug-In . SVG Version: 6.00 Build 0)  -->
<svg version="1.1" id="Capa_1" xmlns="http://www.w3.org/2000/svg" xmlns:xlink="http://www.w3.org/1999/xlink" x="0px" y="0px"
	 viewBox="0 0 461.6 461.6" style="enable-background:new 0 0 461.6 461.6;" xml:space="preserve">
<g>
	<g>
		<path d="M352.4,0H109.2c-9.6,0-17.6,8-17.6,17.6v392c0,9.6,8,17.6,17.6,17.6h1.6v26.4c0,4.8,3.2,8,8,8h40.8c4.8,0,8-3.2,8-8v-26.4
			h127.2v26.4c0,4.8,3.2,8,8,8h40c4.8,0,8-3.2,8-8v-26.4h1.6c9.6,0,17.6-8,17.6-17.6v-392C370,8,362,0,352.4,0z M151.6,446.4h-24.8
			V428h24.8V446.4z M334.8,446.4H310V428h24.8V446.4z M354.8,410.4H354c0,0.8-0.8,1.6-1.6,1.6h-9.6H302H159.6h-40.8h-9.6
			c-0.8,0-1.6-0.8-1.6-1.6v-392c0-0.8,0.8-1.6,1.6-1.6h244c0.8,0,1.6,0.8,1.6,1.6V410.4z"/>
	</g>
</g>
<g>
	<g>
		<path d="M314.8,28.8h-172c-9.6,0-16.8,8-16.8,16.8V96c0,9.6,7.2,17.6,16.8,17.6h172c9.6,0,16.8-8,16.8-16.8V45.6
			C331.6,36,323.6,28.8,314.8,28.8z M315.6,96c0,0.8-0.8,0.8-0.8,0.8h-172c-0.8,0-0.8-0.8-0.8-0.8V45.6c0-0.8,0.8-0.8,0.8-0.8h172
			c0.8,0,0.8,0.8,0.8,0.8V96z"/>
	</g>
</g>
<g>
	<g>
		<path d="M208.4,125.6h-71.2c-9.6,0-16.8,8-16.8,16.8v239.2c0,9.6,8,16.8,16.8,16.8h71.2c9.6,0,16.8-8,16.8-16.8V143.2
			C225.2,133.6,218,125.6,208.4,125.6z M209.2,382.4c0,0.8-0.8,0.8-0.8,0.8h-71.2c-0.8,0-0.8-0.8-0.8-0.8V143.2
			c0-0.8,0.8-0.8,0.8-0.8h71.2c0.8,0,0.8,0.8,0.8,0.8V382.4z"/>
	</g>
</g>
<g>
	<g>
		<path d="M323.6,125.6h-71.2c-9.6,0-16.8,8-16.8,16.8v239.2c0,9.6,8,16.8,16.8,16.8h71.2c9.6,0,16.8-8,16.8-16.8V143.2
			C340.4,133.6,332.4,125.6,323.6,125.6z M324.4,382.4c0,0.8-0.8,0.8-0.8,0.8h-71.2c-0.8,0-0.8-0.8-0.8-0.8V143.2
			c0-0.8,0.8-0.8,0.8-0.8h71.2c0.8,0,0.8,0.8,0.8,0.8V382.4z"/>
	</g>
</g>
<g>
	<g>
		<path d="M250.8,63.2h-40c-4.8,0-8,3.2-8,8s3.2,8,8,8h40c4.8,0,8-3.2,8-8S255.6,63.2,250.8,63.2z"/>
	</g>
</g>
<g>
	<g>
		<path d="M190.8,233.6c-4.8,0-8,3.2-8,8v40c0,4.8,3.2,8,8,8s8-3.2,8-8v-40C198.8,236.8,195.6,233.6,190.8,233.6z"/>
	</g>
</g>
<g>
	<g>
		<path d="M270.8,233.6c-4.8,0-8,3.2-8,8v40c0,4.8,3.2,8,8,8s8-3.2,8-8v-40C278.8,236.8,274.8,233.6,270.8,233.6z"/>
	</g>
</g>
<g>
</g>
<g>
</g>
<g>
</g>
<g>
</g>
<g>
</g>
<g>
</g>
<g>
</g>
<g>
</g>
<g>
</g>
<g>
</g>
<g>
</g>
<g>
</g>
<g>
</g>
<g>
</g>
<g>
</g>
</svg>
